<?xml version="1.0" encoding="utf-8" standalone="no"?>
<!DOCTYPE svg PUBLIC "-//W3C//DTD SVG 1.1//EN"
  "http://www.w3.org/Graphics/SVG/1.1/DTD/svg11.dtd">
<svg xmlns:xlink="http://www.w3.org/1999/xlink" width="504pt" height="460.8pt" viewBox="0 0 504 460.8" xmlns="http://www.w3.org/2000/svg" version="1.1">
 <metadata>
  <rdf:RDF xmlns:dc="http://purl.org/dc/elements/1.1/" xmlns:cc="http://creativecommons.org/ns#" xmlns:rdf="http://www.w3.org/1999/02/22-rdf-syntax-ns#">
   <cc:Work>
    <dc:type rdf:resource="http://purl.org/dc/dcmitype/StillImage"/>
    <dc:date>2026-09-06T11:26:28.838532</dc:date>
    <dc:format>image/svg+xml</dc:format>
    <dc:creator>
     <cc:Agent>
      <dc:title>Matplotlib v3.11.1, https://matplotlib.org/</dc:title>
     </cc:Agent>
    </dc:creator>
   </cc:Work>
  </rdf:RDF>
 </metadata>
 <defs>
  <style type="text/css">*{stroke-linejoin: round; stroke-linecap: butt}</style>
 </defs>
 <g id="figure_1">
  <g id="patch_1">
   <path d="M 0 460.8 
L 504 460.8 
L 504 0 
L 0 0 
z
" style="fill: #ffffff"/>
  </g>
  <g id="axes_1">
   <g id="LineCollection_1">
    <path d="M 253.566799 280.786012 
L 273.074399 273.697905 
" clip-path="url(#pc5e163ac9e)" style="fill: none; stroke: #a7b9bd; stroke-opacity: 0.85; stroke-width: 1.25"/>
    <path d="M 253.566799 280.786012 
L 290.835609 288.13758 
" clip-path="url(#pc5e163ac9e)" style="fill: none; stroke: #a7b9bd; stroke-opacity: 0.85; stroke-width: 1.25"/>
    <path d="M 253.566799 280.786012 
L 269.161319 270.752965 
" clip-path="url(#pc5e163ac9e)" style="fill: none; stroke: #a7b9bd; stroke-opacity: 0.85; stroke-width: 1.25"/>
    <path d="M 253.566799 280.786012 
L 206.079988 333.28491 
" clip-path="url(#pc5e163ac9e)" style="fill: none; stroke: #a7b9bd; stroke-opacity: 0.85; stroke-width: 1.25"/>
    <path d="M 253.566799 280.786012 
L 195.308008 355.42471 
" clip-path="url(#pc5e163ac9e)" style="fill: none; stroke: #a7b9bd; stroke-opacity: 0.85; stroke-width: 1.25"/>
    <path d="M 253.566799 280.786012 
L 195.308008 355.42471 
" clip-path="url(#pc5e163ac9e)" style="fill: none; stroke: #a7b9bd; stroke-opacity: 0.85; stroke-width: 1.25"/>
    <path d="M 253.566799 280.786012 
L 269.963594 272.003364 
" clip-path="url(#pc5e163ac9e)" style="fill: none; stroke: #a7b9bd; stroke-opacity: 0.85; stroke-width: 1.25"/>
    <path d="M 253.566799 280.786012 
L 298.650352 295.8545 
" clip-path="url(#pc5e163ac9e)" style="fill: none; stroke: #a7b9bd; stroke-opacity: 0.85; stroke-width: 1.25"/>
    <path d="M 253.566799 280.786012 
L 206.079988 333.28491 
" clip-path="url(#pc5e163ac9e)" style="fill: none; stroke: #a7b9bd; stroke-opacity: 0.85; stroke-width: 1.25"/>
    <path d="M 253.566799 280.786012 
L 226.348079 89.326452 
" clip-path="url(#pc5e163ac9e)" style="fill: none; stroke: #a7b9bd; stroke-opacity: 0.85; stroke-width: 1.25"/>
    <path d="M 253.566799 280.786012 
L 254.303643 255.657989 
" clip-path="url(#pc5e163ac9e)" style="fill: none; stroke: #a7b9bd; stroke-opacity: 0.85; stroke-width: 1.25"/>
    <path d="M 253.566799 280.786012 
L 280.383508 280.732868 
" clip-path="url(#pc5e163ac9e)" style="fill: none; stroke: #a7b9bd; stroke-opacity: 0.85; stroke-width: 1.25"/>
    <path d="M 253.566799 280.786012 
L 256.858748 258.357905 
" clip-path="url(#pc5e163ac9e)" style="fill: none; stroke: #a7b9bd; stroke-opacity: 0.85; stroke-width: 1.25"/>
    <path d="M 253.566799 280.786012 
L 280.687713 281.964573 
" clip-path="url(#pc5e163ac9e)" style="fill: none; stroke: #a7b9bd; stroke-opacity: 0.85; stroke-width: 1.25"/>
    <path d="M 253.566799 280.786012 
L 256.858748 258.357905 
" clip-path="url(#pc5e163ac9e)" style="fill: none; stroke: #a7b9bd; stroke-opacity: 0.85; stroke-width: 1.25"/>
    <path d="M 253.566799 280.786012 
L 311.633149 307.688355 
" clip-path="url(#pc5e163ac9e)" style="fill: none; stroke: #a7b9bd; stroke-opacity: 0.85; stroke-width: 1.25"/>
    <path d="M 273.074399 273.697905 
L 290.835609 288.13758 
" clip-path="url(#pc5e163ac9e)" style="fill: none; stroke: #a7b9bd; stroke-opacity: 0.85; stroke-width: 1.25"/>
    <path d="M 273.074399 273.697905 
L 269.161319 270.752965 
" clip-path="url(#pc5e163ac9e)" style="fill: none; stroke: #a7b9bd; stroke-opacity: 0.85; stroke-width: 1.25"/>
    <path d="M 273.074399 273.697905 
L 269.963594 272.003364 
" clip-path="url(#pc5e163ac9e)" style="fill: none; stroke: #a7b9bd; stroke-opacity: 0.85; stroke-width: 1.25"/>
    <path d="M 273.074399 273.697905 
L 280.383508 280.732868 
" clip-path="url(#pc5e163ac9e)" style="fill: none; stroke: #a7b9bd; stroke-opacity: 0.85; stroke-width: 1.25"/>
    <path d="M 273.074399 273.697905 
L 256.858748 258.357905 
" clip-path="url(#pc5e163ac9e)" style="fill: none; stroke: #a7b9bd; stroke-opacity: 0.85; stroke-width: 1.25"/>
    <path d="M 273.074399 273.697905 
L 280.687713 281.964573 
" clip-path="url(#pc5e163ac9e)" style="fill: none; stroke: #a7b9bd; stroke-opacity: 0.85; stroke-width: 1.25"/>
    <path d="M 273.074399 273.697905 
L 256.858748 258.357905 
" clip-path="url(#pc5e163ac9e)" style="fill: none; stroke: #a7b9bd; stroke-opacity: 0.85; stroke-width: 1.25"/>
    <path d="M 273.074399 273.697905 
L 304.679811 296.008216 
" clip-path="url(#pc5e163ac9e)" style="fill: none; stroke: #a7b9bd; stroke-opacity: 0.85; stroke-width: 1.25"/>
    <path d="M 290.835609 288.13758 
L 269.161319 270.752965 
" clip-path="url(#pc5e163ac9e)" style="fill: none; stroke: #a7b9bd; stroke-opacity: 0.85; stroke-width: 1.25"/>
    <path d="M 290.835609 288.13758 
L 269.963594 272.003364 
" clip-path="url(#pc5e163ac9e)" style="fill: none; stroke: #a7b9bd; stroke-opacity: 0.85; stroke-width: 1.25"/>
    <path d="M 290.835609 288.13758 
L 298.650352 295.8545 
" clip-path="url(#pc5e163ac9e)" style="fill: none; stroke: #a7b9bd; stroke-opacity: 0.85; stroke-width: 1.25"/>
    <path d="M 290.835609 288.13758 
L 309.994187 296.283347 
" clip-path="url(#pc5e163ac9e)" style="fill: none; stroke: #a7b9bd; stroke-opacity: 0.85; stroke-width: 1.25"/>
    <path d="M 290.835609 288.13758 
L 280.383508 280.732868 
" clip-path="url(#pc5e163ac9e)" style="fill: none; stroke: #a7b9bd; stroke-opacity: 0.85; stroke-width: 1.25"/>
    <path d="M 290.835609 288.13758 
L 319.593353 309.916009 
" clip-path="url(#pc5e163ac9e)" style="fill: none; stroke: #a7b9bd; stroke-opacity: 0.85; stroke-width: 1.25"/>
    <path d="M 290.835609 288.13758 
L 310.641621 301.738325 
" clip-path="url(#pc5e163ac9e)" style="fill: none; stroke: #a7b9bd; stroke-opacity: 0.85; stroke-width: 1.25"/>
    <path d="M 290.835609 288.13758 
L 320.331648 310.301507 
" clip-path="url(#pc5e163ac9e)" style="fill: none; stroke: #a7b9bd; stroke-opacity: 0.85; stroke-width: 1.25"/>
    <path d="M 269.161319 270.752965 
L 269.963594 272.003364 
" clip-path="url(#pc5e163ac9e)" style="fill: none; stroke: #a7b9bd; stroke-opacity: 0.85; stroke-width: 1.25"/>
    <path d="M 269.161319 270.752965 
L 254.303643 255.657989 
" clip-path="url(#pc5e163ac9e)" style="fill: none; stroke: #a7b9bd; stroke-opacity: 0.85; stroke-width: 1.25"/>
    <path d="M 269.161319 270.752965 
L 280.383508 280.732868 
" clip-path="url(#pc5e163ac9e)" style="fill: none; stroke: #a7b9bd; stroke-opacity: 0.85; stroke-width: 1.25"/>
    <path d="M 206.079988 333.28491 
L 195.308008 355.42471 
" clip-path="url(#pc5e163ac9e)" style="fill: none; stroke: #a7b9bd; stroke-opacity: 0.85; stroke-width: 1.25"/>
    <path d="M 206.079988 333.28491 
L 206.079988 333.28491 
" clip-path="url(#pc5e163ac9e)" style="fill: none; stroke: #a7b9bd; stroke-opacity: 0.85; stroke-width: 1.25"/>
    <path d="M 195.308008 355.42471 
L 195.308008 355.42471 
" clip-path="url(#pc5e163ac9e)" style="fill: none; stroke: #a7b9bd; stroke-opacity: 0.85; stroke-width: 1.25"/>
    <path d="M 195.308008 355.42471 
L 206.079988 333.28491 
" clip-path="url(#pc5e163ac9e)" style="fill: none; stroke: #a7b9bd; stroke-opacity: 0.85; stroke-width: 1.25"/>
    <path d="M 195.308008 355.42471 
L 168.039014 401.713548 
" clip-path="url(#pc5e163ac9e)" style="fill: none; stroke: #a7b9bd; stroke-opacity: 0.85; stroke-width: 1.25"/>
    <path d="M 195.308008 355.42471 
L 168.039014 401.713548 
" clip-path="url(#pc5e163ac9e)" style="fill: none; stroke: #a7b9bd; stroke-opacity: 0.85; stroke-width: 1.25"/>
    <path d="M 298.650352 295.8545 
L 304.679811 296.008216 
" clip-path="url(#pc5e163ac9e)" style="fill: none; stroke: #a7b9bd; stroke-opacity: 0.85; stroke-width: 1.25"/>
    <path d="M 298.650352 295.8545 
L 320.331648 310.301507 
" clip-path="url(#pc5e163ac9e)" style="fill: none; stroke: #a7b9bd; stroke-opacity: 0.85; stroke-width: 1.25"/>
    <path d="M 298.650352 295.8545 
L 317.181173 307.713601 
" clip-path="url(#pc5e163ac9e)" style="fill: none; stroke: #a7b9bd; stroke-opacity: 0.85; stroke-width: 1.25"/>
    <path d="M 309.994187 296.283347 
L 317.181173 307.713601 
" clip-path="url(#pc5e163ac9e)" style="fill: none; stroke: #a7b9bd; stroke-opacity: 0.85; stroke-width: 1.25"/>
    <path d="M 280.383508 280.732868 
L 317.181173 307.713601 
" clip-path="url(#pc5e163ac9e)" style="fill: none; stroke: #a7b9bd; stroke-opacity: 0.85; stroke-width: 1.25"/>
    <path d="M 329.254079 316.6032 
L 320.331648 310.301507 
" clip-path="url(#pc5e163ac9e)" style="fill: none; stroke: #a7b9bd; stroke-opacity: 0.85; stroke-width: 1.25"/>
    <path d="M 329.254079 316.6032 
L 317.181173 307.713601 
" clip-path="url(#pc5e163ac9e)" style="fill: none; stroke: #a7b9bd; stroke-opacity: 0.85; stroke-width: 1.25"/>
    <path d="M 329.254079 316.6032 
L 320.331648 310.301507 
" clip-path="url(#pc5e163ac9e)" style="fill: none; stroke: #a7b9bd; stroke-opacity: 0.85; stroke-width: 1.25"/>
    <path d="M 329.254079 316.6032 
L 317.181173 307.713601 
" clip-path="url(#pc5e163ac9e)" style="fill: none; stroke: #a7b9bd; stroke-opacity: 0.85; stroke-width: 1.25"/>
    <path d="M 329.254079 316.6032 
L 320.331648 310.301507 
" clip-path="url(#pc5e163ac9e)" style="fill: none; stroke: #a7b9bd; stroke-opacity: 0.85; stroke-width: 1.25"/>
    <path d="M 329.254079 316.6032 
L 317.181173 307.713601 
" clip-path="url(#pc5e163ac9e)" style="fill: none; stroke: #a7b9bd; stroke-opacity: 0.85; stroke-width: 1.25"/>
    <path d="M 280.687713 281.964573 
L 317.181173 307.713601 
" clip-path="url(#pc5e163ac9e)" style="fill: none; stroke: #a7b9bd; stroke-opacity: 0.85; stroke-width: 1.25"/>
    <path d="M 329.254079 316.6032 
L 320.331648 310.301507 
" clip-path="url(#pc5e163ac9e)" style="fill: none; stroke: #a7b9bd; stroke-opacity: 0.85; stroke-width: 1.25"/>
    <path d="M 329.254079 316.6032 
L 317.181173 307.713601 
" clip-path="url(#pc5e163ac9e)" style="fill: none; stroke: #a7b9bd; stroke-opacity: 0.85; stroke-width: 1.25"/>
    <path d="M 329.254079 316.6032 
L 320.331648 310.301507 
" clip-path="url(#pc5e163ac9e)" style="fill: none; stroke: #a7b9bd; stroke-opacity: 0.85; stroke-width: 1.25"/>
    <path d="M 329.254079 316.6032 
L 317.181173 307.713601 
" clip-path="url(#pc5e163ac9e)" style="fill: none; stroke: #a7b9bd; stroke-opacity: 0.85; stroke-width: 1.25"/>
    <path d="M 327.311231 316.517169 
L 328.761811 320.320485 
" clip-path="url(#pc5e163ac9e)" style="fill: none; stroke: #a7b9bd; stroke-opacity: 0.85; stroke-width: 1.25"/>
    <path d="M 327.311231 316.517169 
L 319.593353 309.916009 
" clip-path="url(#pc5e163ac9e)" style="fill: none; stroke: #a7b9bd; stroke-opacity: 0.85; stroke-width: 1.25"/>
    <path d="M 327.311231 316.517169 
L 330.603107 319.221172 
" clip-path="url(#pc5e163ac9e)" style="fill: none; stroke: #a7b9bd; stroke-opacity: 0.85; stroke-width: 1.25"/>
    <path d="M 327.311231 316.517169 
L 320.331648 310.301507 
" clip-path="url(#pc5e163ac9e)" style="fill: none; stroke: #a7b9bd; stroke-opacity: 0.85; stroke-width: 1.25"/>
    <path d="M 327.311231 316.517169 
L 317.181173 307.713601 
" clip-path="url(#pc5e163ac9e)" style="fill: none; stroke: #a7b9bd; stroke-opacity: 0.85; stroke-width: 1.25"/>
    <path d="M 326.576357 318.184708 
L 328.761811 320.320485 
" clip-path="url(#pc5e163ac9e)" style="fill: none; stroke: #a7b9bd; stroke-opacity: 0.85; stroke-width: 1.25"/>
    <path d="M 326.576357 318.184708 
L 319.593353 309.916009 
" clip-path="url(#pc5e163ac9e)" style="fill: none; stroke: #a7b9bd; stroke-opacity: 0.85; stroke-width: 1.25"/>
    <path d="M 326.576357 318.184708 
L 311.633149 307.688355 
" clip-path="url(#pc5e163ac9e)" style="fill: none; stroke: #a7b9bd; stroke-opacity: 0.85; stroke-width: 1.25"/>
    <path d="M 328.761811 320.320485 
L 311.633149 307.688355 
" clip-path="url(#pc5e163ac9e)" style="fill: none; stroke: #a7b9bd; stroke-opacity: 0.85; stroke-width: 1.25"/>
    <path d="M 335.960986 324.780735 
L 330.603107 319.221172 
" clip-path="url(#pc5e163ac9e)" style="fill: none; stroke: #a7b9bd; stroke-opacity: 0.85; stroke-width: 1.25"/>
    <path d="M 335.960986 324.780735 
L 317.181173 307.713601 
" clip-path="url(#pc5e163ac9e)" style="fill: none; stroke: #a7b9bd; stroke-opacity: 0.85; stroke-width: 1.25"/>
    <path d="M 319.593353 309.916009 
L 317.181173 307.713601 
" clip-path="url(#pc5e163ac9e)" style="fill: none; stroke: #a7b9bd; stroke-opacity: 0.85; stroke-width: 1.25"/>
    <path d="M 310.641621 301.738325 
L 311.633149 307.688355 
" clip-path="url(#pc5e163ac9e)" style="fill: none; stroke: #a7b9bd; stroke-opacity: 0.85; stroke-width: 1.25"/>
    <path d="M 310.641621 301.738325 
L 317.181173 307.713601 
" clip-path="url(#pc5e163ac9e)" style="fill: none; stroke: #a7b9bd; stroke-opacity: 0.85; stroke-width: 1.25"/>
    <path d="M 330.603107 319.221172 
L 320.331648 310.301507 
" clip-path="url(#pc5e163ac9e)" style="fill: none; stroke: #a7b9bd; stroke-opacity: 0.85; stroke-width: 1.25"/>
    <path d="M 330.603107 319.221172 
L 317.181173 307.713601 
" clip-path="url(#pc5e163ac9e)" style="fill: none; stroke: #a7b9bd; stroke-opacity: 0.85; stroke-width: 1.25"/>
    <path d="M 304.679811 296.008216 
L 320.331648 310.301507 
" clip-path="url(#pc5e163ac9e)" style="fill: none; stroke: #a7b9bd; stroke-opacity: 0.85; stroke-width: 1.25"/>
    <path d="M 304.679811 296.008216 
L 317.181173 307.713601 
" clip-path="url(#pc5e163ac9e)" style="fill: none; stroke: #a7b9bd; stroke-opacity: 0.85; stroke-width: 1.25"/>
    <path d="M 311.633149 307.688355 
L 320.331648 310.301507 
" clip-path="url(#pc5e163ac9e)" style="fill: none; stroke: #a7b9bd; stroke-opacity: 0.85; stroke-width: 1.25"/>
    <path d="M 311.633149 307.688355 
L 317.181173 307.713601 
" clip-path="url(#pc5e163ac9e)" style="fill: none; stroke: #a7b9bd; stroke-opacity: 0.85; stroke-width: 1.25"/>
    <path d="M 320.331648 310.301507 
L 317.181173 307.713601 
" clip-path="url(#pc5e163ac9e)" style="fill: none; stroke: #a7b9bd; stroke-opacity: 0.85; stroke-width: 1.25"/>
   </g>
   <g id="PathCollection_1">
    <defs>
     <path id="C0_0_a7452edd48" d="M 0 7.245688 
C 1.921579 7.245688 3.764714 6.482237 5.123475 5.123475 
C 6.482237 3.764714 7.245688 1.921579 7.245688 -0 
C 7.245688 -1.921579 6.482237 -3.764714 5.123475 -5.123475 
C 3.764714 -6.482237 1.921579 -7.245688 0 -7.245688 
C -1.921579 -7.245688 -3.764714 -6.482237 -5.123475 -5.123475 
C -6.482237 -3.764714 -7.245688 -1.921579 -7.245688 0 
C -7.245688 1.921579 -6.482237 3.764714 -5.123475 5.123475 
C -3.764714 6.482237 -1.921579 7.245688 0 7.245688 
z
"/>
    </defs>
    <g clip-path="url(#pc5e163ac9e)">
     <use xlink:href="#C0_0_a7452edd48" x="253.566799" y="280.786012" style="fill: #cf6636; stroke: #ffffff; stroke-width: 0.7"/>
    </g>
    <g clip-path="url(#pc5e163ac9e)">
     <use xlink:href="#C0_0_a7452edd48" x="273.074399" y="273.697905" style="fill: #157a79; stroke: #ffffff; stroke-width: 0.7"/>
    </g>
    <g clip-path="url(#pc5e163ac9e)">
     <use xlink:href="#C0_0_a7452edd48" x="290.835609" y="288.13758" style="fill: #157a79; stroke: #ffffff; stroke-width: 0.7"/>
    </g>
    <g clip-path="url(#pc5e163ac9e)">
     <use xlink:href="#C0_0_a7452edd48" x="269.161319" y="270.752965" style="fill: #157a79; stroke: #ffffff; stroke-width: 0.7"/>
    </g>
    <g clip-path="url(#pc5e163ac9e)">
     <use xlink:href="#C0_0_a7452edd48" x="206.079988" y="333.28491" style="fill: #157a79; stroke: #ffffff; stroke-width: 0.7"/>
    </g>
    <g clip-path="url(#pc5e163ac9e)">
     <use xlink:href="#C0_0_a7452edd48" x="195.308008" y="355.42471" style="fill: #157a79; stroke: #ffffff; stroke-width: 0.7"/>
    </g>
    <g clip-path="url(#pc5e163ac9e)">
     <use xlink:href="#C0_0_a7452edd48" x="195.308008" y="355.42471" style="fill: #157a79; stroke: #ffffff; stroke-width: 0.7"/>
    </g>
    <g clip-path="url(#pc5e163ac9e)">
     <use xlink:href="#C0_0_a7452edd48" x="269.963594" y="272.003364" style="fill: #157a79; stroke: #ffffff; stroke-width: 0.7"/>
    </g>
    <g clip-path="url(#pc5e163ac9e)">
     <use xlink:href="#C0_0_a7452edd48" x="298.650352" y="295.8545" style="fill: #157a79; stroke: #ffffff; stroke-width: 0.7"/>
    </g>
    <g clip-path="url(#pc5e163ac9e)">
     <use xlink:href="#C0_0_a7452edd48" x="309.994187" y="296.283347" style="fill: #157a79; stroke: #ffffff; stroke-width: 0.7"/>
    </g>
    <g clip-path="url(#pc5e163ac9e)">
     <use xlink:href="#C0_0_a7452edd48" x="206.079988" y="333.28491" style="fill: #157a79; stroke: #ffffff; stroke-width: 0.7"/>
    </g>
    <g clip-path="url(#pc5e163ac9e)">
     <use xlink:href="#C0_0_a7452edd48" x="226.348079" y="89.326452" style="fill: #157a79; stroke: #ffffff; stroke-width: 0.7"/>
    </g>
    <g clip-path="url(#pc5e163ac9e)">
     <use xlink:href="#C0_0_a7452edd48" x="254.303643" y="255.657989" style="fill: #157a79; stroke: #ffffff; stroke-width: 0.7"/>
    </g>
    <g clip-path="url(#pc5e163ac9e)">
     <use xlink:href="#C0_0_a7452edd48" x="280.383508" y="280.732868" style="fill: #157a79; stroke: #ffffff; stroke-width: 0.7"/>
    </g>
    <g clip-path="url(#pc5e163ac9e)">
     <use xlink:href="#C0_0_a7452edd48" x="329.254079" y="316.6032" style="fill: #157a79; stroke: #ffffff; stroke-width: 0.7"/>
    </g>
    <g clip-path="url(#pc5e163ac9e)">
     <use xlink:href="#C0_0_a7452edd48" x="329.254079" y="316.6032" style="fill: #157a79; stroke: #ffffff; stroke-width: 0.7"/>
    </g>
    <g clip-path="url(#pc5e163ac9e)">
     <use xlink:href="#C0_0_a7452edd48" x="168.039014" y="401.713548" style="fill: #157a79; stroke: #ffffff; stroke-width: 0.7"/>
    </g>
    <g clip-path="url(#pc5e163ac9e)">
     <use xlink:href="#C0_0_a7452edd48" x="256.858748" y="258.357905" style="fill: #157a79; stroke: #ffffff; stroke-width: 0.7"/>
    </g>
    <g clip-path="url(#pc5e163ac9e)">
     <use xlink:href="#C0_0_a7452edd48" x="329.254079" y="316.6032" style="fill: #157a79; stroke: #ffffff; stroke-width: 0.7"/>
    </g>
    <g clip-path="url(#pc5e163ac9e)">
     <use xlink:href="#C0_0_a7452edd48" x="280.687713" y="281.964573" style="fill: #157a79; stroke: #ffffff; stroke-width: 0.7"/>
    </g>
    <g clip-path="url(#pc5e163ac9e)">
     <use xlink:href="#C0_0_a7452edd48" x="329.254079" y="316.6032" style="fill: #157a79; stroke: #ffffff; stroke-width: 0.7"/>
    </g>
    <g clip-path="url(#pc5e163ac9e)">
     <use xlink:href="#C0_0_a7452edd48" x="256.858748" y="258.357905" style="fill: #157a79; stroke: #ffffff; stroke-width: 0.7"/>
    </g>
    <g clip-path="url(#pc5e163ac9e)">
     <use xlink:href="#C0_0_a7452edd48" x="329.254079" y="316.6032" style="fill: #157a79; stroke: #ffffff; stroke-width: 0.7"/>
    </g>
    <g clip-path="url(#pc5e163ac9e)">
     <use xlink:href="#C0_0_a7452edd48" x="327.311231" y="316.517169" style="fill: #157a79; stroke: #ffffff; stroke-width: 0.7"/>
    </g>
    <g clip-path="url(#pc5e163ac9e)">
     <use xlink:href="#C0_0_a7452edd48" x="326.576357" y="318.184708" style="fill: #157a79; stroke: #ffffff; stroke-width: 0.7"/>
    </g>
    <g clip-path="url(#pc5e163ac9e)">
     <use xlink:href="#C0_0_a7452edd48" x="328.761811" y="320.320485" style="fill: #157a79; stroke: #ffffff; stroke-width: 0.7"/>
    </g>
    <g clip-path="url(#pc5e163ac9e)">
     <use xlink:href="#C0_0_a7452edd48" x="335.960986" y="324.780735" style="fill: #157a79; stroke: #ffffff; stroke-width: 0.7"/>
    </g>
    <g clip-path="url(#pc5e163ac9e)">
     <use xlink:href="#C0_0_a7452edd48" x="319.593353" y="309.916009" style="fill: #157a79; stroke: #ffffff; stroke-width: 0.7"/>
    </g>
    <g clip-path="url(#pc5e163ac9e)">
     <use xlink:href="#C0_0_a7452edd48" x="310.641621" y="301.738325" style="fill: #157a79; stroke: #ffffff; stroke-width: 0.7"/>
    </g>
    <g clip-path="url(#pc5e163ac9e)">
     <use xlink:href="#C0_0_a7452edd48" x="330.603107" y="319.221172" style="fill: #157a79; stroke: #ffffff; stroke-width: 0.7"/>
    </g>
    <g clip-path="url(#pc5e163ac9e)">
     <use xlink:href="#C0_0_a7452edd48" x="304.679811" y="296.008216" style="fill: #157a79; stroke: #ffffff; stroke-width: 0.7"/>
    </g>
    <g clip-path="url(#pc5e163ac9e)">
     <use xlink:href="#C0_0_a7452edd48" x="311.633149" y="307.688355" style="fill: #157a79; stroke: #ffffff; stroke-width: 0.7"/>
    </g>
    <g clip-path="url(#pc5e163ac9e)">
     <use xlink:href="#C0_0_a7452edd48" x="320.331648" y="310.301507" style="fill: #157a79; stroke: #ffffff; stroke-width: 0.7"/>
    </g>
    <g clip-path="url(#pc5e163ac9e)">
     <use xlink:href="#C0_0_a7452edd48" x="317.181173" y="307.713601" style="fill: #5765b0; stroke: #ffffff; stroke-width: 0.7"/>
    </g>
   </g>
   <g id="text_1">
    <g clip-path="url(#pc5e163ac9e)">
     <!-- 0 -->
     <g style="fill: #ffffff" transform="translate(251.339924 282.604372) scale(0.07 -0.07)">
      <defs>
       <path id="DejaVuSans-13" d="M 2034 4250 
Q 1547 4250 1301 3770 
Q 1056 3291 1056 2328 
Q 1056 1369 1301 889 
Q 1547 409 2034 409 
Q 2525 409 2770 889 
Q 3016 1369 3016 2328 
Q 3016 3291 2770 3770 
Q 2525 4250 2034 4250 
z
M 2034 4750 
Q 2819 4750 3233 4129 
Q 3647 3509 3647 2328 
Q 3647 1150 3233 529 
Q 2819 -91 2034 -91 
Q 1250 -91 836 529 
Q 422 1150 422 2328 
Q 422 3509 836 4129 
Q 1250 4750 2034 4750 
z
" transform="scale(0.015625)"/>
      </defs>
      <use xlink:href="#DejaVuSans-13"/>
     </g>
    </g>
   </g>
   <g id="text_2">
    <g clip-path="url(#pc5e163ac9e)">
     <!-- 1 -->
     <g style="fill: #ffffff" transform="translate(270.847524 275.516264) scale(0.07 -0.07)">
      <defs>
       <path id="DejaVuSans-14" d="M 794 531 
L 1825 531 
L 1825 4091 
L 703 3866 
L 703 4441 
L 1819 4666 
L 2450 4666 
L 2450 531 
L 3481 531 
L 3481 0 
L 794 0 
L 794 531 
z
" transform="scale(0.015625)"/>
      </defs>
      <use xlink:href="#DejaVuSans-14"/>
     </g>
    </g>
   </g>
   <g id="text_3">
    <g clip-path="url(#pc5e163ac9e)">
     <!-- 2 -->
     <g style="fill: #ffffff" transform="translate(288.608734 289.955939) scale(0.07 -0.07)">
      <defs>
       <path id="DejaVuSans-15" d="M 1228 531 
L 3431 531 
L 3431 0 
L 469 0 
L 469 531 
Q 828 903 1448 1529 
Q 2069 2156 2228 2338 
Q 2531 2678 2651 2914 
Q 2772 3150 2772 3378 
Q 2772 3750 2511 3984 
Q 2250 4219 1831 4219 
Q 1534 4219 1204 4116 
Q 875 4013 500 3803 
L 500 4441 
Q 881 4594 1212 4672 
Q 1544 4750 1819 4750 
Q 2544 4750 2975 4387 
Q 3406 4025 3406 3419 
Q 3406 3131 3298 2873 
Q 3191 2616 2906 2266 
Q 2828 2175 2409 1742 
Q 1991 1309 1228 531 
z
" transform="scale(0.015625)"/>
      </defs>
      <use xlink:href="#DejaVuSans-15"/>
     </g>
    </g>
   </g>
   <g id="text_4">
    <g clip-path="url(#pc5e163ac9e)">
     <!-- 3 -->
     <g style="fill: #ffffff" transform="translate(266.934444 272.571324) scale(0.07 -0.07)">
      <defs>
       <path id="DejaVuSans-16" d="M 2597 2516 
Q 3050 2419 3304 2112 
Q 3559 1806 3559 1356 
Q 3559 666 3084 287 
Q 2609 -91 1734 -91 
Q 1441 -91 1130 -33 
Q 819 25 488 141 
L 488 750 
Q 750 597 1062 519 
Q 1375 441 1716 441 
Q 2309 441 2620 675 
Q 2931 909 2931 1356 
Q 2931 1769 2642 2001 
Q 2353 2234 1838 2234 
L 1294 2234 
L 1294 2753 
L 1863 2753 
Q 2328 2753 2575 2939 
Q 2822 3125 2822 3475 
Q 2822 3834 2567 4026 
Q 2313 4219 1838 4219 
Q 1578 4219 1281 4162 
Q 984 4106 628 3988 
L 628 4550 
Q 988 4650 1302 4700 
Q 1616 4750 1894 4750 
Q 2613 4750 3031 4423 
Q 3450 4097 3450 3541 
Q 3450 3153 3228 2886 
Q 3006 2619 2597 2516 
z
" transform="scale(0.015625)"/>
      </defs>
      <use xlink:href="#DejaVuSans-16"/>
     </g>
    </g>
   </g>
   <g id="text_5">
    <g clip-path="url(#pc5e163ac9e)">
     <!-- 4 -->
     <g style="fill: #ffffff" transform="translate(203.853113 335.103269) scale(0.07 -0.07)">
      <defs>
       <path id="DejaVuSans-17" d="M 2419 4116 
L 825 1625 
L 2419 1625 
L 2419 4116 
z
M 2253 4666 
L 3047 4666 
L 3047 1625 
L 3713 1625 
L 3713 1100 
L 3047 1100 
L 3047 0 
L 2419 0 
L 2419 1100 
L 313 1100 
L 313 1709 
L 2253 4666 
z
" transform="scale(0.015625)"/>
      </defs>
      <use xlink:href="#DejaVuSans-17"/>
     </g>
    </g>
   </g>
   <g id="text_6">
    <g clip-path="url(#pc5e163ac9e)">
     <!-- 5 -->
     <g style="fill: #ffffff" transform="translate(193.081133 357.243069) scale(0.07 -0.07)">
      <defs>
       <path id="DejaVuSans-18" d="M 691 4666 
L 3169 4666 
L 3169 4134 
L 1269 4134 
L 1269 2991 
Q 1406 3038 1543 3061 
Q 1681 3084 1819 3084 
Q 2600 3084 3056 2656 
Q 3513 2228 3513 1497 
Q 3513 744 3044 326 
Q 2575 -91 1722 -91 
Q 1428 -91 1123 -41 
Q 819 9 494 109 
L 494 744 
Q 775 591 1075 516 
Q 1375 441 1709 441 
Q 2250 441 2565 725 
Q 2881 1009 2881 1497 
Q 2881 1984 2565 2268 
Q 2250 2553 1709 2553 
Q 1456 2553 1204 2497 
Q 953 2441 691 2322 
L 691 4666 
z
" transform="scale(0.015625)"/>
      </defs>
      <use xlink:href="#DejaVuSans-18"/>
     </g>
    </g>
   </g>
   <g id="text_7">
    <g clip-path="url(#pc5e163ac9e)">
     <!-- 6 -->
     <g style="fill: #ffffff" transform="translate(193.081133 357.243069) scale(0.07 -0.07)">
      <defs>
       <path id="DejaVuSans-19" d="M 2113 2584 
Q 1688 2584 1439 2293 
Q 1191 2003 1191 1497 
Q 1191 994 1439 701 
Q 1688 409 2113 409 
Q 2538 409 2786 701 
Q 3034 994 3034 1497 
Q 3034 2003 2786 2293 
Q 2538 2584 2113 2584 
z
M 3366 4563 
L 3366 3988 
Q 3128 4100 2886 4159 
Q 2644 4219 2406 4219 
Q 1781 4219 1451 3797 
Q 1122 3375 1075 2522 
Q 1259 2794 1537 2939 
Q 1816 3084 2150 3084 
Q 2853 3084 3261 2657 
Q 3669 2231 3669 1497 
Q 3669 778 3244 343 
Q 2819 -91 2113 -91 
Q 1303 -91 875 529 
Q 447 1150 447 2328 
Q 447 3434 972 4092 
Q 1497 4750 2381 4750 
Q 2619 4750 2861 4703 
Q 3103 4656 3366 4563 
z
" transform="scale(0.015625)"/>
      </defs>
      <use xlink:href="#DejaVuSans-19"/>
     </g>
    </g>
   </g>
   <g id="text_8">
    <g clip-path="url(#pc5e163ac9e)">
     <!-- 7 -->
     <g style="fill: #ffffff" transform="translate(267.736719 273.821724) scale(0.07 -0.07)">
      <defs>
       <path id="DejaVuSans-1a" d="M 525 4666 
L 3525 4666 
L 3525 4397 
L 1831 0 
L 1172 0 
L 2766 4134 
L 525 4134 
L 525 4666 
z
" transform="scale(0.015625)"/>
      </defs>
      <use xlink:href="#DejaVuSans-1a"/>
     </g>
    </g>
   </g>
   <g id="text_9">
    <g clip-path="url(#pc5e163ac9e)">
     <!-- 8 -->
     <g style="fill: #ffffff" transform="translate(296.423477 297.67286) scale(0.07 -0.07)">
      <defs>
       <path id="DejaVuSans-1b" d="M 2034 2216 
Q 1584 2216 1326 1975 
Q 1069 1734 1069 1313 
Q 1069 891 1326 650 
Q 1584 409 2034 409 
Q 2484 409 2743 651 
Q 3003 894 3003 1313 
Q 3003 1734 2745 1975 
Q 2488 2216 2034 2216 
z
M 1403 2484 
Q 997 2584 770 2862 
Q 544 3141 544 3541 
Q 544 4100 942 4425 
Q 1341 4750 2034 4750 
Q 2731 4750 3128 4425 
Q 3525 4100 3525 3541 
Q 3525 3141 3298 2862 
Q 3072 2584 2669 2484 
Q 3125 2378 3379 2068 
Q 3634 1759 3634 1313 
Q 3634 634 3220 271 
Q 2806 -91 2034 -91 
Q 1263 -91 848 271 
Q 434 634 434 1313 
Q 434 1759 690 2068 
Q 947 2378 1403 2484 
z
M 1172 3481 
Q 1172 3119 1398 2916 
Q 1625 2713 2034 2713 
Q 2441 2713 2670 2916 
Q 2900 3119 2900 3481 
Q 2900 3844 2670 4047 
Q 2441 4250 2034 4250 
Q 1625 4250 1398 4047 
Q 1172 3844 1172 3481 
z
" transform="scale(0.015625)"/>
      </defs>
      <use xlink:href="#DejaVuSans-1b"/>
     </g>
    </g>
   </g>
   <g id="text_10">
    <g clip-path="url(#pc5e163ac9e)">
     <!-- 9 -->
     <g style="fill: #ffffff" transform="translate(307.767312 298.101706) scale(0.07 -0.07)">
      <defs>
       <path id="DejaVuSans-1c" d="M 703 97 
L 703 672 
Q 941 559 1184 500 
Q 1428 441 1663 441 
Q 2288 441 2617 861 
Q 2947 1281 2994 2138 
Q 2813 1869 2534 1725 
Q 2256 1581 1919 1581 
Q 1219 1581 811 2004 
Q 403 2428 403 3163 
Q 403 3881 828 4315 
Q 1253 4750 1959 4750 
Q 2769 4750 3195 4129 
Q 3622 3509 3622 2328 
Q 3622 1225 3098 567 
Q 2575 -91 1691 -91 
Q 1453 -91 1209 -44 
Q 966 3 703 97 
z
M 1959 2075 
Q 2384 2075 2632 2365 
Q 2881 2656 2881 3163 
Q 2881 3666 2632 3958 
Q 2384 4250 1959 4250 
Q 1534 4250 1286 3958 
Q 1038 3666 1038 3163 
Q 1038 2656 1286 2365 
Q 1534 2075 1959 2075 
z
" transform="scale(0.015625)"/>
      </defs>
      <use xlink:href="#DejaVuSans-1c"/>
     </g>
    </g>
   </g>
   <g id="text_11">
    <g clip-path="url(#pc5e163ac9e)">
     <!-- 10 -->
     <g style="fill: #ffffff" transform="translate(201.626238 335.103269) scale(0.07 -0.07)">
      <use xlink:href="#DejaVuSans-14"/>
      <use xlink:href="#DejaVuSans-13" transform="translate(63.625 0)"/>
     </g>
    </g>
   </g>
   <g id="text_12">
    <g clip-path="url(#pc5e163ac9e)">
     <!-- 11 -->
     <g style="fill: #ffffff" transform="translate(221.894329 91.144811) scale(0.07 -0.07)">
      <use xlink:href="#DejaVuSans-14"/>
      <use xlink:href="#DejaVuSans-14" transform="translate(63.625 0)"/>
     </g>
    </g>
   </g>
   <g id="text_13">
    <g clip-path="url(#pc5e163ac9e)">
     <!-- 12 -->
     <g style="fill: #ffffff" transform="translate(249.849893 257.476349) scale(0.07 -0.07)">
      <use xlink:href="#DejaVuSans-14"/>
      <use xlink:href="#DejaVuSans-15" transform="translate(63.625 0)"/>
     </g>
    </g>
   </g>
   <g id="text_14">
    <g clip-path="url(#pc5e163ac9e)">
     <!-- 13 -->
     <g style="fill: #ffffff" transform="translate(275.929758 282.551227) scale(0.07 -0.07)">
      <use xlink:href="#DejaVuSans-14"/>
      <use xlink:href="#DejaVuSans-16" transform="translate(63.625 0)"/>
     </g>
    </g>
   </g>
   <g id="text_15">
    <g clip-path="url(#pc5e163ac9e)">
     <!-- 14 -->
     <g style="fill: #ffffff" transform="translate(324.800329 318.42156) scale(0.07 -0.07)">
      <use xlink:href="#DejaVuSans-14"/>
      <use xlink:href="#DejaVuSans-17" transform="translate(63.625 0)"/>
     </g>
    </g>
   </g>
   <g id="text_16">
    <g clip-path="url(#pc5e163ac9e)">
     <!-- 15 -->
     <g style="fill: #ffffff" transform="translate(324.800329 318.42156) scale(0.07 -0.07)">
      <use xlink:href="#DejaVuSans-14"/>
      <use xlink:href="#DejaVuSans-18" transform="translate(63.625 0)"/>
     </g>
    </g>
   </g>
   <g id="text_17">
    <g clip-path="url(#pc5e163ac9e)">
     <!-- 16 -->
     <g style="fill: #ffffff" transform="translate(163.585264 403.531908) scale(0.07 -0.07)">
      <use xlink:href="#DejaVuSans-14"/>
      <use xlink:href="#DejaVuSans-19" transform="translate(63.625 0)"/>
     </g>
    </g>
   </g>
   <g id="text_18">
    <g clip-path="url(#pc5e163ac9e)">
     <!-- 17 -->
     <g style="fill: #ffffff" transform="translate(252.404998 260.176265) scale(0.07 -0.07)">
      <use xlink:href="#DejaVuSans-14"/>
      <use xlink:href="#DejaVuSans-1a" transform="translate(63.625 0)"/>
     </g>
    </g>
   </g>
   <g id="text_19">
    <g clip-path="url(#pc5e163ac9e)">
     <!-- 18 -->
     <g style="fill: #ffffff" transform="translate(324.800329 318.42156) scale(0.07 -0.07)">
      <use xlink:href="#DejaVuSans-14"/>
      <use xlink:href="#DejaVuSans-1b" transform="translate(63.625 0)"/>
     </g>
    </g>
   </g>
   <g id="text_20">
    <g clip-path="url(#pc5e163ac9e)">
     <!-- 19 -->
     <g style="fill: #ffffff" transform="translate(276.233963 283.782933) scale(0.07 -0.07)">
      <use xlink:href="#DejaVuSans-14"/>
      <use xlink:href="#DejaVuSans-1c" transform="translate(63.625 0)"/>
     </g>
    </g>
   </g>
   <g id="text_21">
    <g clip-path="url(#pc5e163ac9e)">
     <!-- 20 -->
     <g style="fill: #ffffff" transform="translate(324.800329 318.42156) scale(0.07 -0.07)">
      <use xlink:href="#DejaVuSans-15"/>
      <use xlink:href="#DejaVuSans-13" transform="translate(63.625 0)"/>
     </g>
    </g>
   </g>
   <g id="text_22">
    <g clip-path="url(#pc5e163ac9e)">
     <!-- 21 -->
     <g style="fill: #ffffff" transform="translate(252.404998 260.176265) scale(0.07 -0.07)">
      <use xlink:href="#DejaVuSans-15"/>
      <use xlink:href="#DejaVuSans-14" transform="translate(63.625 0)"/>
     </g>
    </g>
   </g>
   <g id="text_23">
    <g clip-path="url(#pc5e163ac9e)">
     <!-- 22 -->
     <g style="fill: #ffffff" transform="translate(324.800329 318.42156) scale(0.07 -0.07)">
      <use xlink:href="#DejaVuSans-15"/>
      <use xlink:href="#DejaVuSans-15" transform="translate(63.625 0)"/>
     </g>
    </g>
   </g>
   <g id="text_24">
    <g clip-path="url(#pc5e163ac9e)">
     <!-- 23 -->
     <g style="fill: #ffffff" transform="translate(322.857481 318.335528) scale(0.07 -0.07)">
      <use xlink:href="#DejaVuSans-15"/>
      <use xlink:href="#DejaVuSans-16" transform="translate(63.625 0)"/>
     </g>
    </g>
   </g>
   <g id="text_25">
    <g clip-path="url(#pc5e163ac9e)">
     <!-- 24 -->
     <g style="fill: #ffffff" transform="translate(322.122607 320.003067) scale(0.07 -0.07)">
      <use xlink:href="#DejaVuSans-15"/>
      <use xlink:href="#DejaVuSans-17" transform="translate(63.625 0)"/>
     </g>
    </g>
   </g>
   <g id="text_26">
    <g clip-path="url(#pc5e163ac9e)">
     <!-- 25 -->
     <g style="fill: #ffffff" transform="translate(324.308061 322.138845) scale(0.07 -0.07)">
      <use xlink:href="#DejaVuSans-15"/>
      <use xlink:href="#DejaVuSans-18" transform="translate(63.625 0)"/>
     </g>
    </g>
   </g>
   <g id="text_27">
    <g clip-path="url(#pc5e163ac9e)">
     <!-- 26 -->
     <g style="fill: #ffffff" transform="translate(331.507236 326.599095) scale(0.07 -0.07)">
      <use xlink:href="#DejaVuSans-15"/>
      <use xlink:href="#DejaVuSans-19" transform="translate(63.625 0)"/>
     </g>
    </g>
   </g>
   <g id="text_28">
    <g clip-path="url(#pc5e163ac9e)">
     <!-- 27 -->
     <g style="fill: #ffffff" transform="translate(315.139603 311.734368) scale(0.07 -0.07)">
      <use xlink:href="#DejaVuSans-15"/>
      <use xlink:href="#DejaVuSans-1a" transform="translate(63.625 0)"/>
     </g>
    </g>
   </g>
   <g id="text_29">
    <g clip-path="url(#pc5e163ac9e)">
     <!-- 28 -->
     <g style="fill: #ffffff" transform="translate(306.187871 303.556684) scale(0.07 -0.07)">
      <use xlink:href="#DejaVuSans-15"/>
      <use xlink:href="#DejaVuSans-1b" transform="translate(63.625 0)"/>
     </g>
    </g>
   </g>
   <g id="text_30">
    <g clip-path="url(#pc5e163ac9e)">
     <!-- 29 -->
     <g style="fill: #ffffff" transform="translate(326.149357 321.039532) scale(0.07 -0.07)">
      <use xlink:href="#DejaVuSans-15"/>
      <use xlink:href="#DejaVuSans-1c" transform="translate(63.625 0)"/>
     </g>
    </g>
   </g>
   <g id="text_31">
    <g clip-path="url(#pc5e163ac9e)">
     <!-- 30 -->
     <g style="fill: #ffffff" transform="translate(300.226061 297.826575) scale(0.07 -0.07)">
      <use xlink:href="#DejaVuSans-16"/>
      <use xlink:href="#DejaVuSans-13" transform="translate(63.625 0)"/>
     </g>
    </g>
   </g>
   <g id="text_32">
    <g clip-path="url(#pc5e163ac9e)">
     <!-- 31 -->
     <g style="fill: #ffffff" transform="translate(307.179399 309.506714) scale(0.07 -0.07)">
      <use xlink:href="#DejaVuSans-16"/>
      <use xlink:href="#DejaVuSans-14" transform="translate(63.625 0)"/>
     </g>
    </g>
   </g>
   <g id="text_33">
    <g clip-path="url(#pc5e163ac9e)">
     <!-- 32 -->
     <g style="fill: #ffffff" transform="translate(315.877898 312.119867) scale(0.07 -0.07)">
      <use xlink:href="#DejaVuSans-16"/>
      <use xlink:href="#DejaVuSans-15" transform="translate(63.625 0)"/>
     </g>
    </g>
   </g>
   <g id="text_34">
    <g clip-path="url(#pc5e163ac9e)">
     <!-- 33 -->
     <g style="fill: #ffffff" transform="translate(312.727423 309.531961) scale(0.07 -0.07)">
      <use xlink:href="#DejaVuSans-16"/>
      <use xlink:href="#DejaVuSans-16" transform="translate(63.625 0)"/>
     </g>
    </g>
   </g>
   <g id="text_35">
    <!-- Default: spectral layout -->
    <g transform="translate(157.91125 33.84) scale(0.16 -0.16)">
     <defs>
      <path id="DejaVuSans-27" d="M 1259 4147 
L 1259 519 
L 2022 519 
Q 2988 519 3436 956 
Q 3884 1394 3884 2338 
Q 3884 3275 3436 3711 
Q 2988 4147 2022 4147 
L 1259 4147 
z
M 628 4666 
L 1925 4666 
Q 3281 4666 3915 4102 
Q 4550 3538 4550 2338 
Q 4550 1131 3912 565 
Q 3275 0 1925 0 
L 628 0 
L 628 4666 
z
" transform="scale(0.015625)"/>
      <path id="DejaVuSans-48" d="M 3597 1894 
L 3597 1613 
L 953 1613 
Q 991 1019 1311 708 
Q 1631 397 2203 397 
Q 2534 397 2845 478 
Q 3156 559 3463 722 
L 3463 178 
Q 3153 47 2828 -22 
Q 2503 -91 2169 -91 
Q 1331 -91 842 396 
Q 353 884 353 1716 
Q 353 2575 817 3079 
Q 1281 3584 2069 3584 
Q 2775 3584 3186 3129 
Q 3597 2675 3597 1894 
z
M 3022 2063 
Q 3016 2534 2758 2815 
Q 2500 3097 2075 3097 
Q 1594 3097 1305 2825 
Q 1016 2553 972 2059 
L 3022 2063 
z
" transform="scale(0.015625)"/>
      <path id="DejaVuSans-49" d="M 2375 4863 
L 2375 4384 
L 1825 4384 
Q 1516 4384 1395 4259 
Q 1275 4134 1275 3809 
L 1275 3500 
L 2222 3500 
L 2222 3053 
L 1275 3053 
L 1275 0 
L 697 0 
L 697 3053 
L 147 3053 
L 147 3500 
L 697 3500 
L 697 3744 
Q 697 4328 969 4595 
Q 1241 4863 1831 4863 
L 2375 4863 
z
" transform="scale(0.015625)"/>
      <path id="DejaVuSans-44" d="M 2194 1759 
Q 1497 1759 1228 1600 
Q 959 1441 959 1056 
Q 959 750 1161 570 
Q 1363 391 1709 391 
Q 2188 391 2477 730 
Q 2766 1069 2766 1631 
L 2766 1759 
L 2194 1759 
z
M 3341 1997 
L 3341 0 
L 2766 0 
L 2766 531 
Q 2569 213 2275 61 
Q 1981 -91 1556 -91 
Q 1019 -91 701 211 
Q 384 513 384 1019 
Q 384 1609 779 1909 
Q 1175 2209 1959 2209 
L 2766 2209 
L 2766 2266 
Q 2766 2663 2505 2880 
Q 2244 3097 1772 3097 
Q 1472 3097 1187 3025 
Q 903 2953 641 2809 
L 641 3341 
Q 956 3463 1253 3523 
Q 1550 3584 1831 3584 
Q 2591 3584 2966 3190 
Q 3341 2797 3341 1997 
z
" transform="scale(0.015625)"/>
      <path id="DejaVuSans-58" d="M 544 1381 
L 544 3500 
L 1119 3500 
L 1119 1403 
Q 1119 906 1312 657 
Q 1506 409 1894 409 
Q 2359 409 2629 706 
Q 2900 1003 2900 1516 
L 2900 3500 
L 3475 3500 
L 3475 0 
L 2900 0 
L 2900 538 
Q 2691 219 2414 64 
Q 2138 -91 1772 -91 
Q 1169 -91 856 284 
Q 544 659 544 1381 
z
M 1991 3584 
L 1991 3584 
z
" transform="scale(0.015625)"/>
      <path id="DejaVuSans-4f" d="M 603 4863 
L 1178 4863 
L 1178 0 
L 603 0 
L 603 4863 
z
" transform="scale(0.015625)"/>
      <path id="DejaVuSans-57" d="M 1172 4494 
L 1172 3500 
L 2356 3500 
L 2356 3053 
L 1172 3053 
L 1172 1153 
Q 1172 725 1289 603 
Q 1406 481 1766 481 
L 2356 481 
L 2356 0 
L 1766 0 
Q 1100 0 847 248 
Q 594 497 594 1153 
L 594 3053 
L 172 3053 
L 172 3500 
L 594 3500 
L 594 4494 
L 1172 4494 
z
" transform="scale(0.015625)"/>
      <path id="DejaVuSans-1d" d="M 750 794 
L 1409 794 
L 1409 0 
L 750 0 
L 750 794 
z
M 750 3309 
L 1409 3309 
L 1409 2516 
L 750 2516 
L 750 3309 
z
" transform="scale(0.015625)"/>
      <path id="DejaVuSans-3" transform="scale(0.015625)"/>
      <path id="DejaVuSans-56" d="M 2834 3397 
L 2834 2853 
Q 2591 2978 2328 3040 
Q 2066 3103 1784 3103 
Q 1356 3103 1142 2972 
Q 928 2841 928 2578 
Q 928 2378 1081 2264 
Q 1234 2150 1697 2047 
L 1894 2003 
Q 2506 1872 2764 1633 
Q 3022 1394 3022 966 
Q 3022 478 2636 193 
Q 2250 -91 1575 -91 
Q 1294 -91 989 -36 
Q 684 19 347 128 
L 347 722 
Q 666 556 975 473 
Q 1284 391 1588 391 
Q 1994 391 2212 530 
Q 2431 669 2431 922 
Q 2431 1156 2273 1281 
Q 2116 1406 1581 1522 
L 1381 1569 
Q 847 1681 609 1914 
Q 372 2147 372 2553 
Q 372 3047 722 3315 
Q 1072 3584 1716 3584 
Q 2034 3584 2315 3537 
Q 2597 3491 2834 3397 
z
" transform="scale(0.015625)"/>
      <path id="DejaVuSans-53" d="M 1159 525 
L 1159 -1331 
L 581 -1331 
L 581 3500 
L 1159 3500 
L 1159 2969 
Q 1341 3281 1617 3432 
Q 1894 3584 2278 3584 
Q 2916 3584 3314 3078 
Q 3713 2572 3713 1747 
Q 3713 922 3314 415 
Q 2916 -91 2278 -91 
Q 1894 -91 1617 61 
Q 1341 213 1159 525 
z
M 3116 1747 
Q 3116 2381 2855 2742 
Q 2594 3103 2138 3103 
Q 1681 3103 1420 2742 
Q 1159 2381 1159 1747 
Q 1159 1113 1420 752 
Q 1681 391 2138 391 
Q 2594 391 2855 752 
Q 3116 1113 3116 1747 
z
" transform="scale(0.015625)"/>
      <path id="DejaVuSans-46" d="M 3122 3366 
L 3122 2828 
Q 2878 2963 2633 3030 
Q 2388 3097 2138 3097 
Q 1578 3097 1268 2742 
Q 959 2388 959 1747 
Q 959 1106 1268 751 
Q 1578 397 2138 397 
Q 2388 397 2633 464 
Q 2878 531 3122 666 
L 3122 134 
Q 2881 22 2623 -34 
Q 2366 -91 2075 -91 
Q 1284 -91 818 406 
Q 353 903 353 1747 
Q 353 2603 823 3093 
Q 1294 3584 2113 3584 
Q 2378 3584 2631 3529 
Q 2884 3475 3122 3366 
z
" transform="scale(0.015625)"/>
      <path id="DejaVuSans-55" d="M 2631 2963 
Q 2534 3019 2420 3045 
Q 2306 3072 2169 3072 
Q 1681 3072 1420 2755 
Q 1159 2438 1159 1844 
L 1159 0 
L 581 0 
L 581 3500 
L 1159 3500 
L 1159 2956 
Q 1341 3275 1631 3429 
Q 1922 3584 2338 3584 
Q 2397 3584 2469 3576 
Q 2541 3569 2628 3553 
L 2631 2963 
z
" transform="scale(0.015625)"/>
      <path id="DejaVuSans-5c" d="M 2059 -325 
Q 1816 -950 1584 -1140 
Q 1353 -1331 966 -1331 
L 506 -1331 
L 506 -850 
L 844 -850 
Q 1081 -850 1212 -737 
Q 1344 -625 1503 -206 
L 1606 56 
L 191 3500 
L 800 3500 
L 1894 763 
L 2988 3500 
L 3597 3500 
L 2059 -325 
z
" transform="scale(0.015625)"/>
      <path id="DejaVuSans-52" d="M 1959 3097 
Q 1497 3097 1228 2736 
Q 959 2375 959 1747 
Q 959 1119 1226 758 
Q 1494 397 1959 397 
Q 2419 397 2687 759 
Q 2956 1122 2956 1747 
Q 2956 2369 2687 2733 
Q 2419 3097 1959 3097 
z
M 1959 3584 
Q 2709 3584 3137 3096 
Q 3566 2609 3566 1747 
Q 3566 888 3137 398 
Q 2709 -91 1959 -91 
Q 1206 -91 779 398 
Q 353 888 353 1747 
Q 353 2609 779 3096 
Q 1206 3584 1959 3584 
z
" transform="scale(0.015625)"/>
     </defs>
     <use xlink:href="#DejaVuSans-27"/>
     <use xlink:href="#DejaVuSans-48" transform="translate(77 0)"/>
     <use xlink:href="#DejaVuSans-49" transform="translate(138.53125 0)"/>
     <use xlink:href="#DejaVuSans-44" transform="translate(173.734375 0)"/>
     <use xlink:href="#DejaVuSans-58" transform="translate(235.015625 0)"/>
     <use xlink:href="#DejaVuSans-4f" transform="translate(298.390625 0)"/>
     <use xlink:href="#DejaVuSans-57" transform="translate(326.171875 0)"/>
     <use xlink:href="#DejaVuSans-1d" transform="translate(365.375 0)"/>
     <use xlink:href="#DejaVuSans-3" transform="translate(399.0625 0)"/>
     <use xlink:href="#DejaVuSans-56" transform="translate(430.84375 0)"/>
     <use xlink:href="#DejaVuSans-53" transform="translate(482.9375 0)"/>
     <use xlink:href="#DejaVuSans-48" transform="translate(546.421875 0)"/>
     <use xlink:href="#DejaVuSans-46" transform="translate(607.953125 0)"/>
     <use xlink:href="#DejaVuSans-57" transform="translate(662.9375 0)"/>
     <use xlink:href="#DejaVuSans-55" transform="translate(702.140625 0)"/>
     <use xlink:href="#DejaVuSans-44" transform="translate(743.25 0)"/>
     <use xlink:href="#DejaVuSans-4f" transform="translate(804.53125 0)"/>
     <use xlink:href="#DejaVuSans-3" transform="translate(832.3125 0)"/>
     <use xlink:href="#DejaVuSans-4f" transform="translate(864.09375 0)"/>
     <use xlink:href="#DejaVuSans-44" transform="translate(891.875 0)"/>
     <use xlink:href="#DejaVuSans-5c" transform="translate(953.15625 0)"/>
     <use xlink:href="#DejaVuSans-52" transform="translate(1012.34375 0)"/>
     <use xlink:href="#DejaVuSans-58" transform="translate(1073.53125 0)"/>
     <use xlink:href="#DejaVuSans-57" transform="translate(1136.90625 0)"/>
    </g>
   </g>
  </g>
 </g>
 <defs>
  <clipPath id="pc5e163ac9e">
   <rect x="147.888378" y="51.84" width="208.223244" height="387.36"/>
  </clipPath>
 </defs>
</svg>
